<svg xmlns="http://www.w3.org/2000/svg" width="36" height="37" viewBox="0 0 36 37"><defs><clipPath id="28k4a"><path d="M0 19.13h17.56V37H0z"/></clipPath><clipPath id="28k4b"><path d="M18.07.55h17.5v18.178h-17.5z"/></clipPath></defs><g><g><g><path fill="#0c0d0c" d="M28 17.589c0 6.033-3.911 10.356-9 10.411-.567 0-1.302.135-1.615-.47-.449-.87.444-.866.879-1.193.56-.421.347-1.124.35-1.713.014-4.457.02-8.915-.008-13.372-.004-.619.323-1.47-.606-1.748-.45-.146-1.151 0-1-.812.198-.767.911-.692 1.503-.692 4-.147 8.336 3.246 9.226 7.283.196.892.218 1.826.271 2.306"/></g><g><g/><g clip-path="url(#28k4a)"><path fill="#0c0d0c" d="M16 37C7.797 36.32.792 29.236.165 20.853c-.044-.587-.625-1.561.696-1.706C2 19 2.053 19.677 2.157 20.62 3 28.32 8.424 33.776 16.195 34.794c.805.104 1.387.099 1.364 1.206-.027 1.315-.848.94-1.559 1"/></g></g><g><g/><g clip-path="url(#28k4b)"><path fill="#0c0d0c" d="M19.481.628C27.704 1 34.901 8.43 35.487 17.064c.048.702.4 1.608-.847 1.661-.867.038-1.038-.343-1.16-1.196-1.247-8.698-5.636-13.299-14.121-14.8-.843-.149-1.359-.245-1.283-1.32.073-1.189.798-.806 1.405-.78"/></g></g><g><path fill="#0c0d0c" d="M14 10.735c-.209.69-.74 1.084-1.38 1.265-.323.066-.706-.158-.62-.628.188-.784.748-1.182 1.398-1.372.378-.078.602.188.602.735"/></g><g><path fill="#0c0d0c" d="M13.19 27c-.496-.236-1.09-.58-1.19-1.396 0-.4.29-.726.64-.604.586.322 1.258.624 1.36 1.451 0 .412-.284.614-.81.549"/></g></g></g></svg>