<svg xmlns="http://www.w3.org/2000/svg" width="37" height="37" viewBox="0 0 37 37"><defs><clipPath id="936la"><path d="M17.71.56h18.694v18.2H17.71z"/></clipPath></defs><g><g><g><path fill="#0c0d0c" d="M14.099 25.8c-.555-1.466-1.4-2.305-2.888-2.67-.518-.13-1.004-.435-1.47-.718-3.657-2.22-3.741-5.783.136-7.753 2.123-1.099 3.705-2.362 4.952-4.47 1.799-3.039 4.838-2.878 6.651.26 1.046 1.81 2.115 3.188 4.226 3.89C27.55 15 29 16.49 29 18.503c0 2.053-1.473 3.498-3.267 4.167-1.978.783-3.4 1.831-4.245 3.856-.567 1.358-1.763 2.375-3.542 2.475-1.946-.146-3.2-1.49-3.847-3.2zm3.997-10.94c-3.096-.017-3.452.377-3.477 3.647-.026 3.493.233 3.816 3.267 3.828 3.263.014 3.32-.047 3.322-3.634.001-3.807-.014-3.826-3.112-3.842zm-5.563.972c-1.465.755-3.18 1.168-3.112 2.861.064 1.63 1.51 2.307 3.112 2.456zM23.52 21.08c1.48-.526 3.254-.927 3.138-2.651C26.561 17 25.13 16.177 23.52 16zm-3.42-8.43c-.518-1.156-.928-2.254-2.1-2.154-1.058.088-1.724.956-1.802 2.154zm-4.16 11.813c.52 1.023.888 2.113 2.06 2.106 1.07-.006 1.627-.943 1.86-2.106z"/></g><g><path fill="#0c0d0c" d="M16.082 37C8.155 36.62.62 29.08.066 20.58 0 19.854-.287 19 1 19c.887 0 1 .375 1.14 1.21 1.166 8.327 6.094 13.309 14.37 14.608.72.114 1.49-.032 1.49 1.182 0 1.255-.83 1-1.918 1"/></g><g><g/><g clip-path="url(#936la)"><path fill="#0c0d0c" d="M36.331 17.215c.007.634.413 1.428-.764 1.532-.99.087-1.254-.257-1.391-1.26C33 9.221 27.78 4 19.468 2.863c-.921-.129-1.955.005-1.726-1.451C17.95.09 18.938.689 19.566.735c8.767.641 16.175 7.949 16.765 16.48"/></g></g></g></g></svg>