<svg xmlns="http://www.w3.org/2000/svg" width="38" height="37" viewBox="0 0 38 37"><defs><clipPath id="n0wya"><path d="M18.69.63h18.441v18.126H18.69z"/></clipPath></defs><g><g><g><path fill="#0c0d0c" d="M18.156 11h7.564c1.163 0 2.004.276 1.913 1.616C27.225 18.638 25.366 24 20.461 28c-1.576 1.248-2.922 1.407-4.61 0-5-4-6.97-9.31-7.209-15.47-.048-1.233.63-1.53 1.72-1.53h7.794m-.025 2H12c-.849 0-1.354.135-1.204 1.126.67 4.427 2.204 8.415 5.568 11.592 1.298 1.225 2.266 1.045 3.46-.079 3.306-3.113 4.844-7.028 5.51-11.383C25.498 13.193 25 13 24.072 13c-1.98.053-3.96 0-5.94 0"/></g><g><g/><g clip-path="url(#n0wya)"><path fill="#0c0d0c" d="M37.09 17.462c.094.665.1 1.237-.824 1.287-.82.045-1.266-.117-1.266-1.094C34.584 9.58 27.764 3.42 19.913 2.762c-.858-.071-1.257-.282-1.22-1.198.032-.83.37-.926 1.154-.933C28.295.554 37.062 9.077 37.09 17.462"/></g></g><g><path fill="#0c0d0c" d="M17.156 37C8.712 36.4 1.474 29.249.784 20.778.728 20.093.177 19 1.685 19c1.173 0 1.042.668 1.134 1.457.905 7.8 6.457 13.343 14.38 14.312.976.12 1.539.231 1.427 1.431-.11 1.174-.923.68-1.47.8"/></g><g><path fill="#0c0d0c" d="M21.64 16.833c-1.11 1.759-2.105 3.477-3.25 5.068-.39.508-2.815-1.07-2.749-1.777.054-.57.359-1.304 1.014-.697 1.345 1.342 1.685-.022 2.224-.891.46-.742.91-1.536 1.362-2.24.204-.296.492-.374.759-.174.228.168.395.43.64.711"/></g></g></g></svg>