<svg xmlns="http://www.w3.org/2000/svg" width="25" height="36" viewBox="0 0 25 36"><defs><clipPath id="ra1ja"><path fill="#fff" d="M1 11C1 4.925 5.925 0 12 0s11 4.925 11 11v11c0 6.075-4.925 11-11 11S1 28.075 1 22z"/></clipPath></defs><g><g><g><path fill="#d8d8d8" d="M12 18a1 1 0 1 0 0-2 1 1 0 0 0 0 2z"/><path fill="none" stroke="#fff" stroke-miterlimit="20" d="M12 18a1 1 0 1 0 0-2 1 1 0 0 0 0 2z"/></g><g><path fill="none" stroke="#fff" stroke-miterlimit="20" stroke-width="2" d="M1 11C1 4.925 5.925 0 12 0h0c6.075 0 11 4.925 11 11v11c0 6.075-4.925 11-11 11h0C5.925 33 1 28.075 1 22z" clip-path="url(&quot;#ra1ja&quot;)"/></g><g><path fill="#d8d8d8" d="M10 13h4.545l-1.99-3z"/><path fill="none" stroke="#fff" stroke-miterlimit="20" d="M10 13v0h4.545v0l-1.99-3v0z"/></g><g transform="rotate(179 12.5 24)"><path fill="#d8d8d8" d="M9.55 25.084h4.546l-1.99-3z"/><path fill="none" stroke="#fff" stroke-miterlimit="20" d="M9.55 25.084v0h4.546v0l-1.99-3v0z"/></g></g></g></svg>