<svg xmlns="http://www.w3.org/2000/svg" width="90" height="13" viewBox="0 0 90 13"><g><g><g><path fill="#fff" d="M49.92 0H47v13h12v-2.883h-9.08V7.915h5.257v-2.83H49.92V2.883H59V0z"/></g><g><path fill="#fff" d="M87 13h3V0h-3z"/></g><g><path fill="#fff" d="M69 0v13h9v-2.883h-6.265V0z"/></g><g><path fill="#fff" d="M38.141 0L35 9l-2.94-7H29l-2.918 7-3.223-9H20l4.626 13h2.86L30.5 5.661 33.515 13h2.859L41 0z"/></g><g><g><path fill="#fff" d="M14.889 12.65h-4.125L8.46 9.9c.321-.2.643-.45 1.018-.65.522-.25.964-.65 1.446-.95 0 0 .076 0 .076-.05z"/></g><g><path fill="#fff" d="M5.785 5.9s-1.34.8-2.732 2.1V.25H.16v12.4h2.946c0-2.2 2.25-3.35 4.715-4.95.482-.3.964-.7 1.446-.95 1.607-1 5.679-3.75 5.679-6.5H12C11.946 2 5.785 5.9 5.785 5.9"/></g></g></g></g></svg>